<svg width="64" height="56" viewBox="0 0 64 56" fill="none" xmlns="http://www.w3.org/2000/svg">
<g id="&#229;&#136;&#135;&#229;&#155;&#190;">
<path id="Vector" d="M13.3726 0C17.616 0 21.6857 1.68571 24.6863 4.68629L40.5858 20.5858C41.3668 21.3668 41.3668 22.6332 40.5858 23.4142L12.6863 51.3137C9.68571 54.3143 5.61605 56 1.37258 56H0V0H13.3726Z" fill="#222937"/>
<path id="Vector_2" d="M15.5147 3C17.106 3 18.6321 3.63214 19.7574 4.75736L37 22H33L14 3H15.5147Z" fill="#00FFFF"/>
<path id="Rectangle 201" d="M27.4142 44.5858C26.1543 45.8457 27.0466 48 28.8284 48H64V8H40.8282C39.0464 8 38.1541 10.1543 39.414 11.4142L47.1715 19.1716C48.7336 20.7337 48.7337 23.2663 47.1715 24.8285L27.4142 44.5858Z" fill="#333C4C" fill-opacity="0.85"/>
</g>
</svg>
