<svg width="40" height="40" viewBox="0 0 40 40" fill="none" xmlns="http://www.w3.org/2000/svg">
<path opacity="0.8" d="M20 4L36 20L20 36L4 20L20 4Z" fill="#222937"/>
<path fill-rule="evenodd" clip-rule="evenodd" d="M25.1237 16.8763L26.6665 15.3335L24.7809 13.4479L23.264 14.9647C22.6823 14.5868 22.0309 14.307 21.3334 14.1487V12H18.6667V14.1487C18.0247 14.2943 17.4218 14.5429 16.8763 14.8762L15.3334 13.3333L13.4478 15.2189L14.9647 16.7358C14.5867 17.3177 14.3069 17.9691 14.1486 18.6667H12V21.3334H14.1486C14.3069 22.031 14.5867 22.6823 14.9647 23.2641L13.4672 24.7616L15.3528 26.6472L16.8762 25.1238C17.4218 25.4571 18.0247 25.7057 18.6667 25.8513V28H21.3334V25.8513C22.0309 25.693 22.6823 25.4132 23.2641 25.0352L24.7615 26.5326L26.6471 24.647L25.1237 23.1236C25.457 22.5782 25.7056 21.9753 25.8512 21.3334H28V18.6667H25.8513C25.7056 18.0247 25.457 17.4218 25.1237 16.8763ZM22.9999 20C22.9999 21.6569 21.6568 23 19.9999 23C18.3431 23 16.9999 21.6569 16.9999 20C16.9999 18.3431 18.3431 17 19.9999 17C21.6568 17 22.9999 18.3431 22.9999 20Z" fill="#5C6B8A"/>
</svg>
