<svg width="379" height="61" viewBox="0 0 379 61" fill="none" xmlns="http://www.w3.org/2000/svg">
<rect width="379" height="50" fill="#222937"/>
<g clip-path="url(#clip0_1380_3091)">
<path d="M2.49024 19.8977H0.109863V33.6726H8.23977V31.3342H2.49024V19.8977ZM34.6436 28.1919L26.0377 19.8247V33.6726H28.418V25.3785L37.024 33.7457V19.8612H34.6436V28.1919ZM46.9484 26.1458V28.3015H50.6471V28.5573C50.5372 30.3842 49.0358 31.5534 46.8019 31.5534C43.982 31.5534 41.8214 29.5073 41.8214 26.8034C41.8214 23.9535 44.275 22.0169 46.5455 22.0169C47.7906 22.0169 49.0358 22.565 50.171 23.5881L51.4894 21.615C50.1344 20.3727 48.2667 19.6054 46.5822 19.6054C42.6271 19.6054 39.4044 22.8208 39.4044 26.8034C39.4044 28.7034 40.1368 30.4938 41.5284 31.8457C42.8834 33.1976 44.7511 33.9649 46.692 33.9649C48.4865 33.9649 50.1344 33.3438 51.3429 32.1745C52.6247 30.9322 53.2838 29.1784 53.2838 27.1323C53.2838 26.84 53.2838 26.5111 53.2472 26.1823H46.9484V26.1458ZM62.4757 26.6207V27.5707H67.5661L67.6027 27.79C67.6027 27.8996 67.6027 27.9727 67.6027 28.0823C67.6027 30.713 65.3322 32.7226 62.3659 32.7226C58.9601 32.7226 56.2868 30.1284 56.2868 26.7669C56.2868 23.4785 58.9601 20.8112 62.2194 20.8112C63.611 20.8112 65.2956 21.5054 66.4675 22.5285L67.09 21.615C65.8449 20.4823 63.8674 19.6785 62.2194 19.6785C60.3517 19.6785 58.5573 20.4093 57.2023 21.7612C55.8473 23.1131 55.1149 24.8669 55.1149 26.7669C55.1149 30.6765 58.3376 33.8553 62.256 33.8553C65.9914 33.8553 68.7746 31.0784 68.7746 27.3515C68.7746 27.0592 68.7746 26.8034 68.738 26.5842H62.4757V26.6207ZM69.1408 33.6726H70.3493L72.5832 28.6669H78.3327L80.5666 33.6726H81.7751L75.4396 19.8247L69.1408 33.6726ZM77.8933 27.7169H72.986L75.4396 22.2362L77.8933 27.7169ZM94.0066 30.9322L84.1189 19.9708V33.6726H85.2541V22.6381L95.1419 33.5995V19.8612H94.0066V30.9322ZM111.548 26.6207H105.213V27.5707H110.303L110.34 27.79C110.34 27.8996 110.34 27.9727 110.34 28.0823C110.34 30.713 108.069 32.7226 105.103 32.7226C101.697 32.7226 99.0237 30.1284 99.0237 26.7669C99.0237 23.4785 101.697 20.8112 104.956 20.8112C106.348 20.8112 108.032 21.5054 109.204 22.5285L109.827 21.615C108.582 20.4823 106.604 19.6785 104.956 19.6785C103.089 19.6785 101.294 20.4093 99.9392 21.7612C98.5842 23.1131 97.8518 24.8669 97.8518 26.7669C97.8518 30.6765 101.074 33.8553 104.993 33.8553C108.728 33.8553 111.512 31.0784 111.512 27.3515C111.585 27.0957 111.548 26.84 111.548 26.6207ZM16.0401 19.6054L14.6851 19.2401L13.6963 22.8208L15.0513 23.1862L16.0401 19.6054ZM13.3667 24.3554L12.4146 20.7381L11.0596 21.1035L12.0117 24.7208L13.3667 24.3554ZM12.4878 26.2188L9.85111 23.5515L8.86234 24.5381L11.4991 27.2054L12.4878 26.2188ZM18.9332 23.8804L22.5586 22.9304L22.1924 21.5785L18.5669 22.5285L18.9332 23.8804ZM20.105 25.5611L23.6939 26.5477L24.0601 25.1958L20.4713 24.2092L20.105 25.5611ZM19.7388 20.3727L18.7501 19.3862L16.0767 22.0169L17.0655 23.0035L19.7388 20.3727ZM12.6709 28.2284L9.08205 27.2419L8.71584 28.5938L12.3047 29.5803L12.6709 28.2284ZM19.4092 29.4342L20.3614 33.0515L21.7164 32.6861L20.7642 29.0688L19.4092 29.4342ZM20.2515 27.5707L22.8882 30.238L23.877 29.2515L21.2403 26.5842L20.2515 27.5707ZM16.7359 34.1841L18.0909 34.5495L19.0796 30.9322L17.7247 30.5669L16.7359 34.1841ZM13.8428 29.9092L10.2173 30.8592L10.5835 32.2111L14.209 31.2611L13.8428 29.9092ZM13.0371 33.3803L14.0259 34.3668L16.6993 31.7361L15.7105 30.7496L13.0371 33.3803Z" fill="#D1D6E0"/>
</g>
<path d="M145.136 22.722H138.476V28.068C140.12 26.784 141.5 25.326 142.616 23.694L143.912 24.864C142.472 26.892 140.66 28.68 138.476 30.228V30.894C138.476 31.242 138.506 31.506 138.566 31.686C138.626 31.854 138.734 31.98 138.89 32.064C139.058 32.136 139.31 32.184 139.646 32.208C140.15 32.232 140.516 32.244 140.744 32.244C140.996 32.244 141.362 32.232 141.842 32.208C142.226 32.172 142.508 32.124 142.688 32.064C142.868 31.992 142.994 31.878 143.066 31.722C143.138 31.554 143.186 31.29 143.21 30.93L143.318 28.734L144.956 29.13C144.932 30.066 144.89 30.906 144.83 31.65C144.782 32.238 144.674 32.682 144.506 32.982C144.35 33.282 144.098 33.492 143.75 33.612C143.402 33.744 142.898 33.828 142.238 33.864C141.866 33.888 141.314 33.9 140.582 33.9C139.862 33.9 139.316 33.888 138.944 33.864C138.344 33.828 137.888 33.738 137.576 33.594C137.276 33.462 137.06 33.228 136.928 32.892C136.796 32.556 136.73 32.064 136.73 31.416V31.38C135.782 31.956 134.864 32.448 133.976 32.856L133.112 31.326C134.408 30.738 135.614 30.072 136.73 29.328V22.722H135.65C135.434 24.39 135.098 25.866 134.642 27.15C134.198 28.434 133.592 29.652 132.824 30.804C132.056 31.944 131.06 33.15 129.836 34.422L128.468 33.09C129.644 31.914 130.586 30.816 131.294 29.796C132.002 28.776 132.554 27.708 132.95 26.592C133.358 25.464 133.652 24.174 133.832 22.722H129.368V21.012H133.976C134.048 20.088 134.108 19.056 134.156 17.916L136.028 17.934C135.932 19.494 135.866 20.52 135.83 21.012H140.852C139.928 20.064 139.166 19.332 138.566 18.816L139.772 17.754C140.156 18.09 140.606 18.51 141.122 19.014C141.65 19.506 142.094 19.944 142.454 20.328L141.734 21.012H145.136V22.722ZM161.912 18.564H163.55V21.984H150.086V18.546H151.724V20.49H156.008V17.898H157.61V20.49H161.912V18.564ZM149.924 23.37H163.712V31.65C163.712 32.394 163.616 32.952 163.424 33.324C163.244 33.696 162.944 33.948 162.524 34.08C162.104 34.212 161.486 34.278 160.67 34.278C160.082 34.278 159.572 34.248 159.14 34.188L158.852 32.604C159.5 32.712 160.136 32.766 160.76 32.766C161.276 32.766 161.624 32.67 161.804 32.478C161.984 32.274 162.074 31.908 162.074 31.38V24.918H151.562V34.26H149.924V23.37ZM160.058 32.406C159.446 31.902 158.384 31.062 156.872 29.886C155.456 30.954 154.058 31.872 152.678 32.64L151.868 31.272C153.14 30.624 154.394 29.838 155.63 28.914C154.43 27.99 153.404 27.216 152.552 26.592L153.524 25.422C154.028 25.782 155.15 26.622 156.89 27.942C157.874 27.138 158.786 26.286 159.626 25.386L160.796 26.43C159.992 27.27 159.104 28.086 158.132 28.878L161.102 31.164L160.058 32.406ZM171.38 20.274V32.082H184.592V33.738H169.688V18.654H184.25V20.274H171.38ZM172.226 29.796C173.69 28.824 175.196 27.588 176.744 26.088C175.04 24.444 173.69 23.196 172.694 22.344L173.828 21.156C174.968 22.152 176.324 23.4 177.896 24.9C179.084 23.64 180.164 22.32 181.136 20.94L182.522 21.948C181.502 23.316 180.362 24.684 179.102 26.052C180.434 27.336 181.73 28.608 182.99 29.868L181.712 31.164C180.8 30.132 179.546 28.83 177.95 27.258C176.342 28.866 174.794 30.192 173.306 31.236L172.226 29.796ZM202.646 20.652C201.806 19.704 201.2 19.044 200.828 18.672L201.872 17.736C202.112 17.952 202.598 18.456 203.33 19.248L203.726 19.68L202.646 20.652ZM204.824 29.886C204.764 30.486 204.668 31.158 204.536 31.902C204.368 32.802 204.134 33.42 203.834 33.756C203.534 34.092 203.186 34.26 202.79 34.26C202.418 34.26 202.064 34.116 201.728 33.828C201.404 33.54 201.08 33.048 200.756 32.352C200.612 32.052 200.492 31.752 200.396 31.452C199.64 32.448 198.74 33.402 197.696 34.314L196.58 33.234C197.888 32.154 198.98 30.948 199.856 29.616C199.34 27.576 198.962 25.092 198.722 22.164H195.086V24.504H198.254C198.254 25.332 198.224 26.394 198.164 27.69C198.116 28.986 198.068 29.82 198.02 30.192C197.948 30.84 197.768 31.284 197.48 31.524C197.192 31.764 196.688 31.884 195.968 31.884C195.764 31.884 195.458 31.86 195.05 31.812L194.78 30.3C195.14 30.372 195.494 30.408 195.842 30.408C196.118 30.408 196.31 30.336 196.418 30.192C196.526 30.048 196.598 29.796 196.634 29.436C196.682 29.016 196.718 28.416 196.742 27.636C196.778 26.856 196.79 26.298 196.778 25.962H195.086C195.074 27.258 194.996 28.362 194.852 29.274C194.72 30.174 194.486 31.026 194.15 31.83C193.826 32.622 193.358 33.498 192.746 34.458L191.252 33.702C191.876 32.79 192.338 31.962 192.638 31.218C192.95 30.474 193.16 29.658 193.268 28.77C193.388 27.882 193.448 26.73 193.448 25.314V20.67H198.614L198.398 17.826H200.072C200.072 18.162 200.12 19.11 200.216 20.67H204.392V22.164H200.324C200.456 24.252 200.666 26.07 200.954 27.618C201.458 26.502 201.944 25.116 202.412 23.46L203.834 23.874C203.126 26.298 202.334 28.284 201.458 29.832C201.614 30.372 201.794 30.882 201.998 31.362C202.142 31.71 202.262 31.962 202.358 32.118C202.466 32.274 202.58 32.352 202.7 32.352C202.832 32.352 202.94 32.268 203.024 32.1C203.108 31.92 203.186 31.59 203.258 31.11C203.354 30.426 203.414 29.88 203.438 29.472L204.824 29.886ZM192.602 30.426C192.134 30.606 191.444 30.858 190.532 31.182C189.632 31.494 188.846 31.758 188.174 31.974L187.904 30.282C188.144 30.222 188.48 30.12 188.912 29.976L189.74 29.724V23.964H188.192V22.38H189.74V18.078H191.306V22.38H192.71V23.964H191.306V29.22L192.602 28.77V30.426ZM224.138 21.57H217.046V23.676H222.77V29.994C222.77 30.618 222.698 31.098 222.554 31.434C222.422 31.77 222.194 32.01 221.87 32.154C221.558 32.286 221.12 32.358 220.556 32.37C219.944 32.37 219.356 32.346 218.792 32.298L218.432 30.516C219.068 30.612 219.644 30.66 220.16 30.66C220.436 30.66 220.634 30.63 220.754 30.57C220.874 30.498 220.952 30.384 220.988 30.228C221.036 30.06 221.06 29.796 221.06 29.436V25.278H217.046V34.404H215.354V25.278H211.322V32.352H209.63V23.676H215.354V21.57H208.244V19.968H215.354C214.994 19.032 214.73 18.396 214.562 18.06L216.272 17.7C216.392 17.928 216.536 18.276 216.704 18.744C216.884 19.2 217.034 19.608 217.154 19.968H224.138V21.57ZM244.298 19.878V21.426H232.598V19.878H237.728C237.356 19.014 237.092 18.438 236.936 18.15L238.592 17.736C238.736 18.036 239.048 18.75 239.528 19.878H244.298ZM232.67 18.276C232.298 19.692 231.872 20.982 231.392 22.146V34.386H229.79V25.332C229.394 26.004 228.926 26.694 228.386 27.402L227.468 25.764C228.188 24.78 228.884 23.556 229.556 22.092C230.228 20.628 230.732 19.224 231.068 17.88L232.67 18.276ZM233.606 22.722H242.876V24.126H233.606V22.722ZM242.876 26.844H233.606V25.404H242.876V26.844ZM235.226 34.35H233.57V28.194H242.93V34.35H241.274V33.396H235.226V34.35ZM241.274 31.902V29.706H235.226V31.902H241.274ZM261.866 19.32V28.212H249.716V19.32H253.946C254.078 18.948 254.252 18.414 254.468 17.718L256.376 18.006C256.316 18.234 256.172 18.672 255.944 19.32H261.866ZM260.228 21.876V20.706H251.336V21.876H260.228ZM260.228 24.342V23.136H251.336V24.342H260.228ZM251.336 25.584V26.844H260.228V25.584H251.336ZM256.862 31.632C256.25 30.936 255.44 30.174 254.432 29.346L255.368 28.284C255.728 28.56 256.148 28.902 256.628 29.31C257.12 29.718 257.522 30.078 257.834 30.39L256.862 31.632ZM261.578 28.752C261.938 29.256 262.364 29.898 262.856 30.678C263.36 31.446 263.78 32.118 264.116 32.694L262.676 33.54C262.376 32.964 261.992 32.292 261.524 31.524C261.056 30.756 260.63 30.102 260.246 29.562L261.578 28.752ZM247.43 33.054C247.778 32.478 248.12 31.812 248.456 31.056C248.804 30.3 249.098 29.58 249.338 28.896L250.85 29.436C250.622 30.132 250.322 30.882 249.95 31.686C249.59 32.478 249.224 33.198 248.852 33.846L247.43 33.054ZM258.59 30.066L260.228 30.498C260.204 31.038 260.144 31.638 260.048 32.298C260 32.766 259.892 33.12 259.724 33.36C259.556 33.6 259.316 33.768 259.004 33.864C258.692 33.972 258.248 34.05 257.672 34.098C257.144 34.146 256.544 34.17 255.872 34.17C255.14 34.17 254.486 34.146 253.91 34.098C253.358 34.05 252.932 33.96 252.632 33.828C252.332 33.708 252.116 33.498 251.984 33.198C251.852 32.898 251.786 32.46 251.786 31.884V29.076H253.46V31.524C253.46 31.932 253.532 32.208 253.676 32.352C253.832 32.496 254.12 32.586 254.54 32.622C255.14 32.67 255.596 32.694 255.908 32.694C256.232 32.694 256.682 32.67 257.258 32.622C257.762 32.574 258.098 32.496 258.266 32.388C258.434 32.268 258.524 32.022 258.536 31.65L258.59 30.066ZM276.968 21.804H275.474V20.868H273.116V19.446H275.474V17.898H276.968V19.446H279.578V17.898H281.072V19.446H283.682V20.868H281.072V21.804H279.578V20.868H276.968V21.804ZM272.504 27.618C272.312 27.354 271.886 26.736 271.226 25.764V34.368H269.714V26.178C269.126 27.834 268.508 29.172 267.86 30.192L266.942 28.59C267.482 27.762 267.986 26.832 268.454 25.8C268.934 24.756 269.318 23.73 269.606 22.722H267.554V21.228H269.714V17.916H271.226V21.228H273.044V22.722H271.226V23.73L271.838 24.432L273.278 26.142L272.504 27.618ZM279.524 30.534C279.944 31.11 280.496 31.596 281.18 31.992C281.876 32.388 282.782 32.718 283.898 32.982L283.376 34.44C281.096 33.852 279.416 32.808 278.336 31.308C277.436 32.628 275.696 33.672 273.116 34.44L272.522 32.982C273.686 32.694 274.634 32.352 275.366 31.956C276.098 31.548 276.638 31.074 276.986 30.534H272.864V29.148H277.454C277.466 29.112 277.472 29.052 277.472 28.968C277.484 28.824 277.49 28.524 277.49 28.068H273.944V22.29H282.728V28.068H279.074L279.038 28.968V29.148H283.646V30.534H279.524ZM281.36 24.612V23.532H275.366V24.612H281.36ZM281.36 25.71H275.366V26.826H281.36V25.71ZM298.388 26.124C298.868 26.196 299.36 26.232 299.864 26.232C300.296 26.232 300.578 26.166 300.71 26.034C300.854 25.89 300.926 25.59 300.926 25.134V18.258H302.51V25.53C302.51 26.118 302.444 26.568 302.312 26.88C302.192 27.18 301.958 27.396 301.61 27.528C301.274 27.66 300.764 27.726 300.08 27.726C299.78 27.726 299.318 27.702 298.694 27.654L298.388 26.124ZM287.588 27.492C288.236 26.868 288.698 26.334 288.974 25.89C289.262 25.434 289.448 24.912 289.532 24.324H287.462V22.83H289.64V22.272V20.31H287.912V18.78H296.588V20.31H294.842V22.83H296.894V24.324H294.842V27.582H293.276V24.324H291.152C291.056 25.188 290.84 25.926 290.504 26.538C290.18 27.15 289.652 27.798 288.92 28.482L287.588 27.492ZM297.83 19.122H299.378V25.404H297.83V19.122ZM291.242 20.31V22.29V22.83H293.276V20.31H291.242ZM296.336 30.57V32.316H303.41V33.864H287.408V32.316H294.662V30.57H289.136V29.058H294.662V27.852H296.336V29.058H301.718V30.57H296.336Z" fill="#F9F9FB"/>
<rect x="307" y="17" width="32" height="18" rx="3" fill="#04BCBF"/>
<g filter="url(#filter0_d_1380_3091)">
<path d="M317.099 28.3056V28.9375C317.099 29.6718 316.915 30.2435 316.548 30.6528C316.193 31.062 315.691 31.2667 315.042 31.2667C314.393 31.2667 313.884 31.062 313.517 30.6528C313.149 30.2435 312.966 29.6718 312.966 28.9375V24.0625C312.966 23.3282 313.149 22.7565 313.517 22.3472C313.884 21.938 314.393 21.7333 315.042 21.7333C315.691 21.7333 316.193 21.938 316.548 22.3472C316.915 22.7565 317.099 23.3282 317.099 24.0625V24.5139H319.01V24.0444C319.01 22.7926 318.648 21.8056 317.926 21.0833C317.216 20.3611 316.26 20 315.06 20C313.848 20 312.868 20.3731 312.121 21.1194C311.374 21.8537 311 22.8468 311 24.0986V28.9736C311 30.2255 311.361 31.2125 312.084 31.9347C312.819 32.6449 313.792 33 315.005 33C316.205 33 317.173 32.6329 317.908 31.8986C318.642 31.1644 319.01 30.1713 319.01 28.9194V28.3056H317.099Z" fill="#F9F9FB"/>
<path d="M320.749 32.8194V20.1805H322.788V32.8194H320.749Z" fill="#F9F9FB"/>
<path d="M329.378 30.8333L326.568 24.0264V32.8194H324.712V20.1805H326.696L329.911 27.9986L333.108 20.1805H335V32.8194H333.145V24.0264L330.315 30.8333H329.378Z" fill="#F9F9FB"/>
</g>
<path d="M350.864 26.97H358.046V28.608H350.864V34.332H349.118V28.608H341.918V26.97H349.118V20.292H342.656V18.672H357.326V20.292H350.864V26.97ZM352.304 25.242C352.736 24.762 353.252 24.108 353.852 23.28C354.452 22.44 354.92 21.744 355.256 21.192L356.624 22.11C356.288 22.65 355.808 23.346 355.184 24.198C354.572 25.038 354.056 25.698 353.636 26.178L352.304 25.242ZM344.672 21.21C345.08 21.714 345.584 22.374 346.184 23.19C346.796 24.006 347.294 24.696 347.678 25.26L346.31 26.196C345.938 25.608 345.452 24.906 344.852 24.09C344.264 23.262 343.772 22.608 343.376 22.128L344.672 21.21ZM373.004 19.554C373.64 20.19 374.444 21.06 375.416 22.164C376.388 23.256 377.168 24.174 377.756 24.918L376.496 25.998L375.254 24.468L369.584 24.882C368.636 24.942 367.688 25.008 366.74 25.08C365.804 25.152 364.862 25.224 363.914 25.296C363.278 25.344 362.816 25.386 362.528 25.422L362.078 23.694C362.522 23.622 362.84 23.556 363.032 23.496C363.236 23.424 363.422 23.322 363.59 23.19C364.238 22.698 365.054 21.87 366.038 20.706C367.034 19.53 367.844 18.474 368.468 17.538L369.98 18.42C369.344 19.332 368.618 20.286 367.802 21.282C366.986 22.266 366.272 23.04 365.66 23.604L373.976 22.974C373.076 21.93 372.35 21.126 371.798 20.562L373.004 19.554ZM365.354 34.386H363.662V26.7H375.884V34.386H374.192V33.468H365.354V34.386ZM374.192 31.866V28.356H365.354V31.866H374.192Z" fill="#F9F9FB"/>
<rect y="50" width="132.5" height="6" fill="#222937"/>
<path d="M132.843 56C133.904 56 134.921 55.5786 135.671 54.8284L136.5 54H242.5L243.328 54.8284C244.078 55.5786 245.096 56 246.157 56H246.5V50H132.5V56H132.843Z" fill="#222937"/>
<g filter="url(#filter1_d_1380_3091)">
<path d="M242.5 54L239.671 51.1716C238.921 50.4214 237.904 50 236.843 50H142.157C141.096 50 140.078 50.4214 139.328 51.1716L136.5 54H242.5Z" fill="#00FFFF"/>
</g>
<rect x="246.5" y="50" width="132.5" height="6" fill="#222937"/>
<defs>
<filter id="filter0_d_1380_3091" x="308" y="17" width="30" height="19" filterUnits="userSpaceOnUse" color-interpolation-filters="sRGB">
<feFlood flood-opacity="0" result="BackgroundImageFix"/>
<feColorMatrix in="SourceAlpha" type="matrix" values="0 0 0 0 0 0 0 0 0 0 0 0 0 0 0 0 0 0 127 0" result="hardAlpha"/>
<feOffset/>
<feGaussianBlur stdDeviation="1.5"/>
<feComposite in2="hardAlpha" operator="out"/>
<feColorMatrix type="matrix" values="0 0 0 0 0.027451 0 0 0 0 0.478431 0 0 0 0 0.498039 0 0 0 1 0"/>
<feBlend mode="normal" in2="BackgroundImageFix" result="effect1_dropShadow_1380_3091"/>
<feBlend mode="normal" in="SourceGraphic" in2="effect1_dropShadow_1380_3091" result="shape"/>
</filter>
<filter id="filter1_d_1380_3091" x="128.5" y="41" width="122" height="20" filterUnits="userSpaceOnUse" color-interpolation-filters="sRGB">
<feFlood flood-opacity="0" result="BackgroundImageFix"/>
<feColorMatrix in="SourceAlpha" type="matrix" values="0 0 0 0 0 0 0 0 0 0 0 0 0 0 0 0 0 0 127 0" result="hardAlpha"/>
<feOffset dy="-1"/>
<feGaussianBlur stdDeviation="4"/>
<feColorMatrix type="matrix" values="0 0 0 0 0.108333 0 0 0 0 0.679 0 0 0 0 1 0 0 0 0.58 0"/>
<feBlend mode="normal" in2="BackgroundImageFix" result="effect1_dropShadow_1380_3091"/>
<feBlend mode="normal" in="SourceGraphic" in2="effect1_dropShadow_1380_3091" result="shape"/>
</filter>
<clipPath id="clip0_1380_3091">
<rect width="112" height="16" fill="white" transform="translate(0 19)"/>
</clipPath>
</defs>
</svg>
