<?xml version="1.0" standalone="no"?><!DOCTYPE svg PUBLIC "-//W3C//DTD SVG 1.1//EN" "http://www.w3.org/Graphics/SVG/1.1/DTD/svg11.dtd"><svg t="1692776813903" class="icon" viewBox="0 0 1024 1024" version="1.1" xmlns="http://www.w3.org/2000/svg" p-id="16419" xmlns:xlink="http://www.w3.org/1999/xlink" width="200" height="200"><path d="M180.705882 0h722.82353v1024l-361.411765-183.717647-361.411765 183.717647z" fill="#FB5D5D" p-id="16420"></path><path d="M180.705882 0l-36.141176 60.235294h36.141176z" fill="#AA2424" p-id="16421"></path><path d="M382.494118 496.941176c-15.058824 54.211765-33.129412 102.4-60.235294 144.564706l-33.129412-21.082353c24.094118-39.152941 45.176471-81.317647 57.223529-129.505882l36.141177 6.023529z m-21.082353-168.658823c-9.035294-21.082353-18.070588-42.164706-30.117647-60.235294l36.141176-12.047059c9.035294 21.082353 21.082353 45.176471 30.117647 72.282353h60.235294c12.047059-24.094118 21.082353-48.188235 27.105883-75.294118l36.141176 12.047059c-9.035294 24.094118-18.070588 45.176471-27.105882 63.247059h60.235294v36.141176h-105.411765v60.235295h96.376471v36.141176h-96.376471v153.6c0 30.117647-15.058824 45.176471-48.188235 45.176471h-30.117647l-9.035294-36.141177c9.035294 3.011765 18.070588 3.011765 24.094117 3.011765 15.058824 0 21.082353-6.023529 21.082353-18.070588v-144.564706h-99.388235v-36.141177h99.388235v-60.235294h-108.423529V331.294118h63.247059z m45.17647-120.470588c-9.035294-18.070588-15.058824-33.129412-24.094117-48.188236l39.152941-6.023529c9.035294 15.058824 15.058824 33.129412 24.094117 54.211765h102.4v36.141176h-243.952941v-36.141176h102.4z m132.517647 376.470588l-33.129411 12.047059c-9.035294-33.129412-24.094118-69.270588-39.152942-99.388236l33.129412-9.035294c18.070588 33.129412 30.117647 66.258824 39.152941 96.376471z m234.917647-385.505882c-48.188235 18.070588-99.388235 30.117647-159.623529 33.129411v99.388236h174.682353v36.141176h-57.223529v289.129412h-39.152942v-289.129412h-81.317647v63.247059c-3.011765 93.364706-24.094118 168.658824-63.247059 222.870588l-27.105882-30.117647c33.129412-45.176471 48.188235-111.435294 51.2-192.752941v-231.905882c66.258824 0 123.482353-15.058824 177.694118-36.141177l24.094117 36.141177z" fill="#FFFFFF" p-id="16422"></path></svg>