<?xml version="1.0" standalone="no"?><!DOCTYPE svg PUBLIC "-//W3C//DTD SVG 1.1//EN" "http://www.w3.org/Graphics/SVG/1.1/DTD/svg11.dtd"><svg t="1692771410502" class="icon" viewBox="0 0 1024 1024" version="1.1" xmlns="http://www.w3.org/2000/svg" p-id="15249" xmlns:xlink="http://www.w3.org/1999/xlink" width="200" height="200"><path d="M500.3108416 32.99337067c134.0318272 0 242.68020267 106.87464533 242.68020267 238.69394773 0 131.84549973-108.64728427 238.72560213-242.68020267 238.72560213-134.02746133 0-242.6736544-106.8790112-242.6736544-238.72560213C257.636096 139.8374528 366.31940053 32.99337067 500.3108416 32.99337067L500.3108416 32.99337067 500.3108416 32.99337067zM500.3108416 32.99337067c134.0318272 0 242.68020267 106.87464533 242.68020267 238.69394773 0 131.84549973-108.64728427 238.72560213-242.68020267 238.72560213-134.02746133 0-242.6736544-106.8790112-242.6736544-238.72560213C257.636096 139.8374528 366.31940053 32.99337067 500.3108416 32.99337067L500.3108416 32.99337067 500.3108416 32.99337067zM409.3124512 590.00049173l202.271888 0c173.13576853 0 313.4722528 138.01371627 313.4722528 308.327888l0 19.86360107c0 67.11688-140.36595627 69.66777707-313.4722528 69.66777707L409.3124512 987.85975893c-173.1412256 0-313.4722528-0.09823787-313.4722528-69.66777706l0-19.86360107C95.8423808 728.014208 236.1723168 590.00049173 409.3124512 590.00049173L409.3124512 590.00049173 409.3124512 590.00049173z" fill="#a6a6a6" p-id="15250"></path></svg>