<?xml version="1.0" standalone="no"?><!DOCTYPE svg PUBLIC "-//W3C//DTD SVG 1.1//EN" "http://www.w3.org/Graphics/SVG/1.1/DTD/svg11.dtd"><svg t="1692840959355" class="icon" viewBox="0 0 1024 1024" version="1.1" xmlns="http://www.w3.org/2000/svg" p-id="4302" xmlns:xlink="http://www.w3.org/1999/xlink" width="200" height="200"><path d="M285.866667 842.666667h-57.6c-25.6 0-46.933333-21.333333-46.933334-46.933334V548.266667c0-25.6 21.333333-46.933333 46.933334-46.933334h57.6c25.6 0 46.933333 21.333333 46.933333 46.933334v249.6c0 25.6-21.333333 44.8-46.933333 44.8zM552.533333 842.666667h-57.6c-25.6 0-46.933333-21.333333-46.933333-46.933334V206.933333c0-25.6 21.333333-46.933333 46.933333-46.933333h57.6c25.6 0 46.933333 21.333333 46.933334 46.933333v590.933334c0 25.6-21.333333 44.8-46.933334 44.8zM819.2 842.666667h-57.6c-25.6 0-46.933333-21.333333-46.933333-46.933334V398.933333c0-25.6 21.333333-46.933333 46.933333-46.933333h57.6c25.6 0 46.933333 21.333333 46.933333 46.933333v398.933334c0 25.6-21.333333 44.8-46.933333 44.8z" fill="#2161de" p-id="4303"></path></svg>