<?xml version="1.0" standalone="no"?><!DOCTYPE svg PUBLIC "-//W3C//DTD SVG 1.1//EN" "http://www.w3.org/Graphics/SVG/1.1/DTD/svg11.dtd"><svg t="1692771774063" class="icon" viewBox="0 0 1024 1024" version="1.1" xmlns="http://www.w3.org/2000/svg" p-id="26236" xmlns:xlink="http://www.w3.org/1999/xlink" width="200" height="200"><path d="M726.639616 0c12.115537 2.048 29.426526 12.050863 29.0816 41.552842-0.344926 29.501979-16.966063 37.338274-29.0816 39.386274H184.771153c-34.330947 0.474274-88.549053 19.089516-90.165895 78.352168-1.541389 56.751158 31.830232 88.527495 93.658274 90.295242h661.428547v-24.608337c0-27.173726-21.9136-18.194863-48.936421-18.194863H193.847027c-11.695158-0.301811-32.962021-10.811284-34.061474-40.119242 1.336589-33.069811 28.294737-40.712084 35.462737-40.819873h605.48581c54.293558 0.388042 98.206989 44.538611 98.584253 99.133978v439.40379a191.0784 191.0784 0 0 0-93.970863-24.543663c-106.010947 0-191.951495 85.940547-191.951495 191.951495 0 67.400758 34.729768 126.684968 87.277137 160.929684H135.823953C81.37949 992.719495 37.250479 948.331789 37.250479 893.574737V150.452547a149.504 149.504 0 0 1 42.684632-106.054063A147.811705 147.811705 0 0 1 184.760374 0h541.857684zM485.115742 424.593516c-100.837053 0-186.960842 62.733474-221.852294 151.260968 34.891453 88.538274 121.015242 151.260968 221.852294 151.260969 100.944842 0 186.960842-62.733474 221.852295-151.260969-34.891453-88.538274-120.907453-151.260968-221.852295-151.260968z m0 50.423916c55.662484 0 100.837053 45.163789 100.837053 100.837052 0 55.662484-45.163789 100.837053-100.837053 100.837053-55.662484 0-100.837053-45.163789-100.837052-100.837053 0-55.662484 45.163789-100.837053 100.837052-100.837052z m0 40.334821a60.556126 60.556126 0 0 0-60.502231 60.502231 60.556126 60.556126 0 0 0 60.502231 60.502232 60.556126 60.556126 0 0 0 60.502232-60.502232 60.556126 60.556126 0 0 0-60.502232-60.502231z" fill="#2161de" p-id="26237"></path><path d="M994.151532 982.501053l-45.713516-45.724295a10.768168 10.768168 0 0 0-15.241432 0l-1.2288 1.2288s-22.581895-22.452547-23.174736-22.829811a129.455158 129.455158 0 0 0 28.596547-81.348715c0-71.798568-58.206316-130.004884-129.994105-130.004885-71.809347 0-130.004884 58.206316-130.004885 130.004885 0 71.787789 58.206316 129.994105 129.994106 129.994105 30.795453 0 59.090189-10.703495 81.359494-28.607326 0.377263 0.603621 22.829811 23.174737 22.829811 23.174736l-1.2288 1.239579a10.778947 10.778947 0 0 0 0 15.241432l45.702737 45.713516a10.778947 10.778947 0 0 0 15.25221 0l22.851369-22.851369a10.778947 10.778947 0 0 0 0-15.241431z m-188.092632-92.418695a57.581137 57.581137 0 1 1 0-115.162274 57.581137 57.581137 0 0 1 0 115.162274z" fill="#2161de" p-id="26238"></path></svg>